<?xml version="1.0" encoding="utf-8" ?>
<svg baseProfile="full" height="200mm" version="1.1" viewBox="0,0,200,200" width="200mm" xmlns="http://www.w3.org/2000/svg" xmlns:ev="http://www.w3.org/2001/xml-events" xmlns:xlink="http://www.w3.org/1999/xlink"><defs /><rect fill="#1a1a1a" height="200" width="200" x="0" y="0" /><rect fill="#1a1a1a" height="200" width="180" x="10" y="0" /><text alignment-baseline="middle" fill="#e1ed5e" style="dominant-baseline: central; font-size:9.0px; font-family:Arial;" text-anchor="middle" x="100.0" y="100.0">2026</text><line stroke="#e1ed5e" stroke-width="0.3" x1="100.0" x2="100.0" y1="15.0" y2="10.0" /><path d="M 100.0 14.0 a86.0,86.0 0 0,1 42.46469731375804,11.215312516191453" fill="none" id="id25" stroke="none" /><text fill="#e1ed5e" style="font-size:6.75px; font-family:Arial;" text-anchor="middle"><textPath startOffset="22.20632615414155" xlink:href="#id25">January</textPath></text><path d="M 100.0 79.0 l 0.0 -11.033752263381828 a32.03375226338183,32.03375226338183 0 0,0 0.5514083867173668,0.00474614607031695 l -0.18992790744483848 11.03211749392007" fill="#ff6209" stroke="none" /><path d="M 100.36148047927253 79.00311137660856 l 0.16699017493380236 -9.699760582762316 a30.701197919918652,30.701197919918652 0 0,0 0.5283140569461585,0.013644793412626503 l -0.33393086707482866 9.69544899720733" fill="#ff4f07" stroke="none" /><path d="M 100.72285384407766 79.0124445844662 l 2.1685615322329816 -62.9626662466014 a84.0,84.0 0 0,0 1.4446366704426739,0.062209093903220936 l -3.2520390350649873 62.916009426173986" fill="#4dd2ff" stroke="none" /><path d="M 101.08401301168833 79.027996857942 l 0.4793458719880199 -9.273729212722435 a30.28610930238781,30.28610930238781 0 0,0 0.520398934728247,0.031391884890654385 l -0.6389068555558789 9.264104058451476" fill="#ff4806" stroke="none" /><path d="M 101.80526077348638 79.07773832637324 l 0.6849495368143177 -7.938295482254744 a28.967790850139593,28.967790850139593 0 0,0 0.49641809765097017,0.047140879947701116 l -0.821492761555532 7.925329057791865" fill="#ff3505" stroke="none" /><path d="M 102.16513564639614 79.11191278185805 l 0.8224583829693076 -7.934644864099069 a28.97715656804417,28.97715656804417 0 0,0 0.4956933084215868,0.05569691885724856 l -0.9589183949006197 7.919311991771219" fill="#ff3505" stroke="none" /><path d="M 102.52436894288641 79.15227682838746 l 1.3114960286045991 -10.831105422234737 a31.91021844422046,31.91021844422046 0 0,0 0.5447306343976338,0.07072167021870063 l -1.497741391510079 10.8069254288519" fill="#ff6008" stroke="none" /><path d="M 102.88285421437855 79.19881850522331 l 7.451344101332074 -53.7650361432702 a75.2789244587953,75.2789244587953 0 0,0 1.2820037384015792,0.1889340259718218 l -8.375716820162308 53.628807633137406" fill="#42ffd3" stroke="none" /><path d="M 103.2404852339499 79.25152402106235 l 0.8114725825345114 -5.195771056102301 a26.25875694624078,26.25875694624078 0 0,0 0.44598722313438216,0.07359171318315996 l -0.9007890118077687 5.181033079979517" fill="#ff0c01" stroke="none" /><path d="M 103.59715602781102 79.31037775812273 l 1.666369029839764 -9.584389855874052 a30.72817118748383,30.72817118748383 0 0,0 0.5203375044692627,0.09508835302813057 l -1.8311016554119275 9.554286021495184" fill="#ff4f07" stroke="none" /><path d="M 104.307194497241 79.44645832069477 l 1.8506440842745058 -8.831105803107032 a30.022932629269206,30.022932629269206 0 0,0 0.5048960523940415,0.11035072126460181 l -2.0023828608220753 8.79794158374656" fill="#ff4506" stroke="none" /><path d="M 104.66035177308747 79.52364482259891 l 2.1640866044093263 -9.50842513701154 a30.751585482245275,30.751585482245275 0 0,0 0.5151275886190967,0.12191405712125887 l -2.3274378799909465 9.469765167749413" fill="#ff4f07" stroke="none" /><path d="M 105.01212808612495 79.60689891045804 l 2.778149846704906 -11.303599926463699 a32.63999518334508,32.63999518334508 0 0,0 0.5444523898137799,0.13879303690168096 l -2.972311125203711 11.25410389339315" fill="#ff6b09" stroke="none" /><path d="M 105.36241919743992 79.69619591428918 l 3.828659495134991 -14.496507907705071 a35.99357779343686,35.99357779343686 0 0,0 0.5976684071886668,0.16336535273954136 l -4.077625791547368 14.428456014139236" fill="#ff9b0e" stroke="none" /><path d="M 105.71112130821622 79.79150937346287 l 2.5511587187293667 -9.027135701019336 a30.380703053224035,30.380703053224035 0 0,0 0.5020191024718326,0.1465531422817258 l -2.7061680389246265 8.981884229818908" fill="#ff4a06" stroke="none" /><path d="M 106.0581310904928 79.89281104454417 l 3.139408898590725 -10.419828654990095 a31.88249591922291,31.88249591922291 0 0,0 0.5241097117050755,0.1628434386621161 l -3.3183039830065186 10.364245081445459" fill="#ff6008" stroke="none" /><path d="M 106.74666289553966 80.11325718540242 l 4.116805743271112 -12.134867015249354 a33.81417523704186,33.81417523704186 0 0,0 0.549589834579067,0.19174110180535303 l -4.325077581913452 12.062205060271793" fill="#ff7c0b" stroke="none" /><path d="M 107.08798089147638 80.2323363322302 l 4.722433415889861 -13.170390395804732 a34.99144597764715,34.99144597764715 0 0,0 0.5652246153520001,0.20817699596089329 l -4.948440357014437 13.087150132037515" fill="#ff8c0c" stroke="none" /><path d="M 107.4271985657038 80.35727306442388 l 4.326763346368164 -11.442999695742719 a33.2336880413162,33.2336880413162 0 0,0 0.5333482075748953,0.2069308184775036 l -4.523094718942726 11.366826173374669" fill="#ff730a" stroke="none" /><path d="M 107.76421540070413 80.48803036053334 l 7.30869251001427 -18.36721149527392 a40.76793980965293,40.76793980965293 0 0,0 0.6497946218066933,0.2650675416062471 l -7.6237710014093505 18.238683067484093" fill="#ffdc14" stroke="none" /><path d="M 108.09893153111575 80.62456947434976 l 4.0375099970034976 -9.659112951258946 a31.46899947373585,31.46899947373585 0 0,0 0.49798379291478306,0.2132106714124678 l -4.203177547708596 9.588182751883688" fill="#ff5a08" stroke="none" /><path d="M 108.43124777332544 80.76684994638697 l 4.445298322710345 -10.140502565261562 a32.07205804961154,32.07205804961154 0 0,0 0.5037113448730156,0.22600059761124472 l -4.619191786050141 10.062481637133786" fill="#ff6309" stroke="none" /><path d="M 109.08828744355905 81.06846463323043 l 3.9552464312930034 -8.239053635058593 a30.13925484564405,30.13925484564405 0 0,0 0.46576448515745555,0.22854861007381314 l -4.096482183460891 8.169749864849948" fill="#ff4606" stroke="none" /><path d="M 109.41281617654863 81.2277094730956 l 5.76018743046073 -11.487732247808566 a33.850982508406844,33.850982508406844 0 0,0 0.5186285050903039,0.2656616639476785 l -5.95707642313979 11.386878058548387" fill="#ff7c0b" stroke="none" /><path d="M 109.73455568895987 81.39251694778311 l 5.688946552141333 -10.8743511194858 a33.27255577062019,33.27255577062019 0 0,0 0.5051961534345367,0.26985828911397336 l -5.875287752104181 10.774814103870073" fill="#ff740a" stroke="none" /><path d="M 110.05341064243156 81.56283822128135 l 9.088431720441688 -16.667466584662836 a39.984310192577,39.984310192577 0 0,0 0.6014324002336463,0.33469647957298065 l -9.37398820974737 16.508554707529676" fill="#ffd113" stroke="none" /><path d="M 110.36928655335952 81.73862282372117 l 5.140154985324176 -9.052340143992184 a31.40990179375797,31.40990179375797 0 0,0 0.46786285304907804,0.2710163629436081 l -5.295214570838582 8.962519623658526" fill="#ff5908" stroke="none" /><line stroke="#e1ed5e" stroke-width="0.3" x1="143.23703022742887" x2="145.7803849466894" y1="26.81831364943548" y2="22.513508569990506" /><path d="M 143.74570117128098 25.957352633546492 a86.0,86.0 0 0,1 28.547481713284135,27.462654790039103" fill="none" id="id26" stroke="none" /><text fill="#e1ed5e" style="font-size:6.75px; font-family:Arial;" text-anchor="middle"><textPath startOffset="19.985693538727396" xlink:href="#id26">February</textPath></text><path d="M 110.68208982089419 81.91981866633111 l 5.595303249834454 -9.470440622582718 a31.999848364567256,31.999848364567256 0 0,0 0.47182699661683414,0.2842704861533442 l -5.7574923126689255 9.37272352697076" fill="#ff6209" stroke="none" /><path d="M 111.2981086023043 82.29822771554956 l 4.999048499001932 -7.832463050515171 a30.291822390309605,30.291822390309605 0 0,0 0.4371152873023741,0.2843119420142153 l -5.133130812088586 7.745252184341428" fill="#ff4906" stroke="none" /><path d="M 111.60114157652 82.49532879139004 l 5.284158509022257 -7.973134083788993 a30.565207695944196,30.565207695944196 0 0,0 0.43605679715209145,0.2944274959526916 l -5.42062000058089 7.880994675537631" fill="#ff4d07" stroke="none" /><path d="M 111.90073688211348 82.69761687909136 l 4.406343605681244 -6.4063465971128375 a28.775419004379586,28.775419004379586 0 0,0 0.40569073869664846,0.2842122884441442 l -4.515965483961544 6.3295494659047575" fill="#ff3204" stroke="none" /><path d="M 112.19680574252982 82.90503203632743 l 8.707186160174953 -12.203938605244218 a35.99170464985595,35.99170464985595 0 0,0 0.5012353617743568,0.36416880686922065 l -8.915966838303099 12.052250563558323" fill="#ff9b0e" stroke="none" /><path d="M 112.77801427241765 83.33499621200491 l 7.599038163700521 -9.910616554603996 a33.48862288267877,33.48862288267877 0 0,0 0.45443653781459054,0.3546949259172099 l -7.768507256674542 9.778343239463561" fill="#ff770b" stroke="none" /><path d="M 113.34407831869373 83.78471172551755 l 5.625149551261387 -6.835498067558405 a29.852476563405908,29.852476563405908 0 0,0 0.39397089917393036,0.32993929806164973 l -5.741977987394434 6.737657612102936" fill="#ff4206" stroke="none" /><path d="M 113.6212207817346 84.01681056812373 l 5.835956404094597 -6.847932224099587 a29.997364219389713,29.997364219389713 0 0,0 0.39011743774128566,0.33830599772817527 l -5.9529676404826475 6.746461232951741" fill="#ff4406" stroke="none" /><path d="M 113.89432698308785 84.25364557470407 l 10.897425091734286 -12.34998413571424 a37.47045784980956,37.47045784980956 0 0,0 0.4799591167307789,0.4309120339332033 l -11.108395196061055 12.16057309301174" fill="#ffaf10" stroke="none" /><path d="M 114.16331599549186 84.49514656593476 l 7.8072514312190675 -8.546747753314103 a32.575840015698724,32.575840015698724 0 0,0 0.4107536007103512,0.3817507063156984 l -7.953212915724265 8.411092460923763" fill="#ff6a09" stroke="none" /><path d="M 114.42810811169701 84.74124197986012 l 6.158949343966994 -6.513530184993748 a29.964303235186556,29.964303235186556 0 0,0 0.371723956487844,0.3575981516248012 l -6.270156544067256 6.4065489466066445" fill="#ff4406" stroke="none" /><path d="M 114.68862486808459 84.99185889309783 l 14.520462510972559 -14.836320776063019 a41.75958202138951,41.75958202138951 0 0,0 0.5093957101836337,0.5072082031186815 l -14.773694021323516 14.584176722294218" fill="#ffe915" stroke="none" /><path d="M 115.19652480421416 85.50635884689758 l 9.99910484693623 -9.536617047046963 a34.817711910517254,34.817711910517254 0 0,0 0.40990838849990907,0.43726168881583866 l -10.161780557406603 9.36308594135307" fill="#ff8a0c" stroke="none" /><path d="M 115.4437574822437 85.77008943001954 l 6.9242132337146165 -6.379984611680105 a30.41535620947097,30.41535620947097 0 0,0 0.35145140986460377,0.3880814247872172 l -7.033008284195256 6.259850399623339" fill="#ff4a06" stroke="none" /><path d="M 115.68641384162765 86.03803664274999 l 14.468282535108132 -12.87774456526512 a40.3692411984551,40.3692411984551 0 0,0 0.457533707924793,0.5230401208567 l -14.687808106610774 12.626788888205471" fill="#ffd614" stroke="none" /><path d="M 116.38621287248628 86.86637796730983 l 5.900723327609065 -4.729455824073919 a28.562161607692374,28.562161607692374 0 0,0 0.30418147109410204,0.38627957817748326 l -5.9812588792971315 4.627183851943397" fill="#ff2f04" stroke="none" /><path d="M 116.82858285166822 87.43820079747576 l 6.995935694769238 -5.222159239793116 a29.73006663039309,29.73006663039309 0 0,0 0.30259175101790636,0.4127348083289748 l -7.084790058300771 5.100961987792647" fill="#ff4006" stroke="none" /><path d="M 117.04232023915458 87.72973835380427 l 5.388325894490218 -3.8795285872204976 a27.63963839409157,27.63963839409157 0 0,0 0.27466874885861825,0.38849946639751165 l -5.454307263152719 3.7862026204911925" fill="#ff2103" stroke="none" /><path d="M 117.65298651832404 88.62581576622439 l 4.614126093244271 -2.972976850571697 a26.488966292335274,26.488966292335274 0 0,0 0.24366368055477428,0.3854174266781974 l -4.664617370045001 2.8931117761792935" fill="#ff0f01" stroke="none" /><line stroke="#e1ed5e" stroke-width="0.3" x1="172.23445277983987" x2="176.4835382374775" y1="55.19839476539836" y2="52.563006222186495" /><path d="M 173.08426987136738 54.67131705675599 a86.0,86.0 0 0,1 12.851231095245387,41.99856678651699" fill="none" id="id27" stroke="none" /><text fill="#e1ed5e" style="font-size:6.75px; font-family:Arial;" text-anchor="middle"><textPath startOffset="22.20632615414155" xlink:href="#id27">March</textPath></text><path d="M 117.84615892207809 88.93136811851018 l 33.973142059813476 -21.070988158265646 a60.97700493261143,60.97700493261143 0 0,0 0.5455531378409849,0.896745915071484 l -34.33081099594069 20.48307446998708" fill="#34ff2f" stroke="none" /><path d="M 118.21658344932153 89.55222093294921 l 8.130038558988884 -4.662830816065207 a30.372273907109918,30.372273907109918 0 0,0 0.256200773296083,0.4557525880432153 l -8.2090969735774 4.522194718087198" fill="#ff4a06" stroke="none" /><path d="M 118.3937258080291 89.86733742301442 l 5.130377982687425 -2.8262022351271447 a26.857319977522277,26.857319977522277 0 0,0 0.2195802055637475,0.4068487724559475 l -5.178266287469637 2.7374724793387384" fill="#ff1502" stroke="none" /><path d="M 118.56541770881063 90.18545643968196 l 6.681073021041335 -3.5319260370617656 a28.55719777720295,28.55719777720295 0 0,0 0.225996994569144,0.4365542601089712 l -6.740879448770595 3.41639905469245" fill="#ff2f04" stroke="none" /><path d="M 118.89224826269711 90.83032412892265 l 5.1514662200020584 -2.5003522524893573 a26.726199926858204,26.726199926858204 0 0,0 0.19731801468601998,0.41560206129632293 l -5.193742428529834 2.411307775552494" fill="#ff1302" stroke="none" /><path d="M 119.04729006885535 91.15688171328212 l 10.203146926573739 -4.737032661459112 a32.24916377518709,32.24916377518709 0 0,0 0.22942620704202446,0.5055102356209241 l -10.28317545057911 4.5607004169961245" fill="#ff6509" stroke="none" /><path d="M 119.34039704204932 91.81776055985345 l 10.337644143271262 -4.373492407801747 a32.22471925145614,32.22471925145614 0 0,0 0.21172916204199038,0.5127189600911665 l -10.411394992199451 4.194898877257277" fill="#ff6509" stroke="none" /><path d="M 119.47837535516314 92.15188598940014 l 14.720888461256607 -5.931254987887981 a36.870864589558565,36.870864589558565 0 0,0 0.23212219619895486,0.5907256705480841 l -14.820804207337263 5.676980312444113" fill="#ffa70f" stroke="none" /><path d="M 119.61058180528143 92.48833698450437 l 17.562080556325924 -6.727002406148922 a39.806361552390044,39.806361552390044 0 0,0 0.23958768803178204,0.6419758884209342 l -17.67527283285933 6.4237033806986545" fill="#ffcf13" stroke="none" /><path d="M 119.85752413597 93.16781622104841 l 43.03195674418839 -14.80558375913709 a66.50774232680111,66.50774232680111 0 0,0 0.36314084382480044,1.0857449015971192 l -43.28043488178496 14.062665754617656" fill="#36ff6e" stroke="none" /><path d="M 119.97218684219823 93.5106431181261 l 18.858770961831986 -6.127586132244405 a40.82928526192791,40.82928526192791 0 0,0 0.2114267082808695,0.6702804428084717 l -18.961453153881063 5.802055523009514" fill="#ffdc14" stroke="none" /><path d="M 120.18372546131832 94.20196356495316 l 9.927942312211991 -2.8519299552288206 a31.329450276957658,31.329450276957658 0 0,0 0.14443358369965814,0.5196044476934447 l -9.975562666478012 2.680614204116424" fill="#ff5808" stroke="none" /><path d="M 120.28053869075195 94.5502522615342 l 15.321067731206004 -4.117048146117336 a36.86458955856249,36.86458955856249 0 0,0 0.15940190266729587,0.614240555105502 l -15.389665965743601 3.852711165462983" fill="#ffa70f" stroke="none" /><path d="M 120.37134235888165 94.90015583598534 l 19.17734631353185 -4.800934369242143 a40.76915735298053,40.76915735298053 0 0,0 0.16456606212086583,0.6822325707923272 l -19.257145175913536 4.47011656679041" fill="#ffdc14" stroke="none" /><path d="M 120.53481517161879 95.60439243477599 l 10.182693757399395 -2.179670249783686 a31.413367109382666,31.413367109382666 0 0,0 0.10863146843638322,0.5297256197765713 l -10.218704521750775 2.0040689738437028" fill="#ff5908" stroke="none" /><path d="M 120.6074358757038 95.95851677861258 l 19.15237381763571 -3.756119776404307 a40.517219541347416,40.517219541347416 0 0,0 0.12833207271323935,0.6855550639668088 l -19.21419161425881 3.4258866349749355" fill="#ffd814" stroke="none" /><path d="M 120.73433829027371 96.67025291283417 l 8.33823301742907 -1.3390447630015918 a29.445067834556824,29.445067834556824 0 0,0 0.07605816177641636,0.5011282561783791 l -8.360047072644786 1.1953173944311306" fill="#ff3c05" stroke="none" /><path d="M 120.78858239683441 97.02765380044208 l 15.686329868257415 -2.242827436661894 a36.84585812275334,36.84585812275334 0 0,0 0.08436648936615741,0.6286283398223915 l -15.72261235668141 1.972480754774838" fill="#ffa60f" stroke="none" /><path d="M 120.83666639777658 97.38593545837742 l 10.23498480844126 -1.2840302935716714 a31.3152143857427,31.3152143857427 0 0,0 0.06249569431063861,0.5354249433762175 l -10.255570855755488 1.107661611870601" fill="#ff5808" stroke="none" /><path d="M 120.91429891909075 98.10471618934814 l 8.751150372791313 -0.7930418174807493 a29.78701019525292,29.78701019525292 0 0,0 0.04187985007089595,0.5110402486352347 l -8.763504706681704 0.6422876516377458" fill="#ff4106" stroke="none" /><path d="M 120.94382443527127 98.46500227214037 l 24.29319986051927 -1.7804774244353072 a45.35835912622312,45.35835912622312 0 0,0 0.050368101325380915,0.7791722340543146 l -24.320248552849066 1.3620461261279573" fill="#e7ff1a" stroke="none" /><path d="M 120.98425023603335 99.18683210126433 l 10.354926668060719 -0.4012673250421815 a31.362698575518905,31.362698575518905 0 0,0 0.016261268799321674,0.5396323453641161 l -10.360299631315685 0.22296483225306632" fill="#ff5808" stroke="none" /><line stroke="#e1ed5e" stroke-width="0.3" x1="184.98032266829074" x2="189.97916517819016" y1="98.17113171792111" y2="98.06355123074" /><path d="M 185.9800911702706 98.14961562048488 a86.0,86.0 0 0,1 -9.607161424134198,41.387399972396054" fill="none" id="id28" stroke="none" /><text fill="#e1ed5e" style="font-size:6.75px; font-family:Arial;" text-anchor="middle"><textPath startOffset="21.466115282336823" xlink:href="#id28">April</textPath></text><path d="M 120.99513854157772 99.54816195383933 l 13.214777775476362 -0.28439628339170536 a34.21783767872911,34.21783767872911 0 0,0 0.007604495471133018,0.5889765546872912 l -13.21771527806521 0.056883470643951446" fill="#ff820b" stroke="none" /><path d="M 120.99980553446 99.90962569577887 l 10.368690274460427 -0.044622468893869956 a31.36878629215688,31.36878629215688 0 0,0 -0.0023238336123671036,0.5399770916604235 l -10.367922143558557 -0.13386410097023824" fill="#ff5808" stroke="none" /><path d="M 120.9904718944345 100.63252640178507 l 9.19764279878063 0.2771615585240662 a30.201817841246623,30.201817841246623 0 0,0 -0.020131477799711018,0.5195039897998386 l -9.191509188129714 -0.43544279533791097" fill="#ff4706" stroke="none" /><path d="M 120.9764740272857 100.99374915477107 l 18.97520415906717 0.898940073062478 a39.99648562585295,39.99648562585295 0 0,0 -0.038498806008236644,0.687422043312096 l -18.956919002171407 -1.2254338327099974" fill="#ffd113" stroke="none" /><path d="M 120.92983693683757 101.71520430193887 l 8.600740227810892 0.7048323731866076 a29.629572477276984,29.629572477276984 0 0,0 -0.0460322268670866,0.5079617876747023 l -8.58733340466673 -0.8527755494098805" fill="#ff3f05" stroke="none" /><path d="M 120.89721153311464 102.0752229133903 l 6.9313779028855445 0.6883288817094816 a27.965471719991793,27.965471719991793 0 0,0 -0.051693107124166734,0.4786139712567571 l -6.918502494260325 -0.8075391748510301" fill="#ff2603" stroke="none" /><path d="M 120.81339534386255 102.79330883721812 l 4.459588945354106 0.5985092295424617 a25.49957185289579,25.49957185289579 0 0,0 -0.06212903773922735,0.43453034524379347 l -4.4486258565982775 -0.6751850467666645" fill="#ff0000" stroke="none" /><path d="M 120.70491114924044 103.5080841355445 l 39.17387436042079 6.6373261001241755 a60.73218506658579,60.73218506658579 0 0,0 -0.18350824795188875,1.0292117091522826 l -39.05381967012971 -7.310656560009677" fill="#37ff2e" stroke="none" /><path d="M 120.5718875245553 104.21870165774334 l 9.686738521833487 1.9864710912601862 a30.888324963652096,30.888324963652096 0 0,0 -0.11129499050316749,0.5199331436206466 l -9.651109492605876 -2.1529180542970017" fill="#ff5107" stroke="none" /><path d="M 120.49622156327973 104.57218783832717 l 12.80568222029889 2.85662332095536 a34.120434212521516,34.120434212521516 0 0,0 -0.13280880870168152,0.5721368719573887 l -12.754612845666655 -3.0766288502613137" fill="#ff800b" stroke="none" /><path d="M 120.32669344350535 105.2749913415812 l 6.621391697128875 1.7183209836193205 a27.840720357502832,27.840720357502832 0 0,0 -0.12437102536990402,0.46283085255849193 l -6.590832595417194 -1.8320427693533607" fill="#ff2403" stroke="none" /><path d="M 120.23288151984713 105.62410040840565 l 41.91386930326564 11.650728505236598 a64.50301040932646,64.50301040932646 0 0,0 -0.3065654943744455,1.067194703531934 l -41.7071111720051 -12.370480684273113" fill="#33ff56" stroke="none" /><path d="M 120.13307415673323 105.97154293290107 l 14.79725549592442 4.388919734518908 a36.43442213520529,36.43442213520529 0 0,0 -0.18351363910069826,0.5997331906091788 l -14.719515084317589 -4.642979897680144" fill="#ffa10e" stroke="none" /><path d="M 119.9155931802556 106.66101706037122 l 8.94133055042231 2.990538860666616 a30.42818724300024,30.42818724300024 0 0,0 -0.17041113416919257,0.4952945235794003 l -8.888528585309887 -3.144006087335317" fill="#ff4b06" stroke="none" /><path d="M 119.67450827220406 107.3425965602758 l 7.9952094118627475 2.9838406283915466 a29.533854840292207,29.533854840292207 0 0,0 -0.18185220840498958,0.4747587321263587 l -7.942662923864251 -3.1210229273510492" fill="#ff3d05" stroke="none" /><path d="M 119.54520255179757 107.68017299344265 l 15.194424529278276 5.970560223738027 a37.32538287946767,37.32538287946767 0 0,0 -0.24012198327895062,0.595963070237835 l -15.089399931741934 -6.231222661818675" fill="#ffad10" stroke="none" /><path d="M 119.41010516605496 108.01547362559984 l 18.268986068468923 7.544244337962327 a40.7654110658187,40.7654110658187 0 0,0 -0.27341753094822646,0.6462782769286437 l -18.136417556328386 -7.857597140557135" fill="#ffdb14" stroke="none" /><path d="M 119.26925614724726 108.34839909993367 l 13.766885000170706 5.9644985497135625 a36.003411797236666,36.003411797236666 0 0,0 -0.25126766566553804,0.5665422533493166 l -13.662176249773896 -6.200589139555567" fill="#ff9b0e" stroke="none" /><path d="M 118.81262510543309 109.33194174019688 l 5.808520288148051 2.8812976722793913 a27.483886505338457,27.483886505338457 0 0,0 -0.21387872819741047,0.42200302141369245 l -5.758062890164371 -2.980854905395778" fill="#ff1e03" stroke="none" /><path d="M 118.64920377521936 109.65438752849418 l 9.242094327490609 4.784480950926961 a31.407092078386597,31.407092078386597 0 0,0 -0.2526737824092022,0.4779635737171224 l -9.158368036856514 -4.942859539730217" fill="#ff5908" stroke="none" /><line stroke="#e1ed5e" stroke-width="0.3" x1="174.80103733775053" x2="179.2010983576182" y1="140.37084112569926" y2="142.7455964860345" /><path d="M 175.68104954172406 140.8457921977663 a86.0,86.0 0 0,1 -30.038265399797805,32.042727171017184" fill="none" id="id29" stroke="none" /><text fill="#e1ed5e" style="font-size:6.75px; font-family:Arial;" text-anchor="middle"><textPath startOffset="22.206326154141568" xlink:href="#id29">May</textPath></text><path d="M 118.48025628344425 109.97397251340804 l 28.65403207427688 15.46485740910328 a53.56094852423045,53.56094852423045 0 0,0 -0.44487109308472117,0.8075702554928065 l -28.383584571740652 -15.95579818299389" fill="#85ff25" stroke="none" /><path d="M 118.12598468904814 110.60418214915192 l 8.920634061048704 5.218807700220832 a31.335069707700406,31.335069707700406 0 0,0 -0.276374008152156,0.463218734666261 l -8.829479177198321 -5.371588528773198" fill="#ff5808" stroke="none" /><line stroke="#e1ed5e" stroke-width="0.3" x1="143.8653032363475" x2="146.44561519142675" y1="172.8068346515853" y2="177.08958963109032" /><path d="M 144.38136562736335 173.6633856474863 a86.0,86.0 0 0,1 -40.68145358897372,12.25698825130547" fill="none" id="id30" stroke="none" /><text fill="#e1ed5e" style="font-size:6.75px; font-family:Arial;" text-anchor="middle"><textPath startOffset="21.466115282336833" xlink:href="#id30">June</textPath></text><line stroke="#e1ed5e" stroke-width="0.3" x1="102.19456741930631" x2="102.32365962044197" y1="184.97166512339345" y2="189.96999836594603" /><path d="M 102.22038585953345 185.97133177190398 a86.0,86.0 0 0,1 -42.740103519485714,-10.115201625700543" fill="none" id="id31" stroke="none" /><text fill="#e1ed5e" style="font-size:6.75px; font-family:Arial;" text-anchor="middle"><textPath startOffset="22.20632615414155" xlink:href="#id31">July</textPath></text><line stroke="#e1ed5e" stroke-width="0.3" x1="58.666819895761336" x2="56.23545636021788" y1="174.27360380694188" y2="178.64263932499728" /><path d="M 58.180547188652646 175.14741091055294 a86.0,86.0 0 0,1 -31.652253787137756,-30.449443065178592" fill="none" id="id32" stroke="none" /><text fill="#e1ed5e" style="font-size:6.75px; font-family:Arial;" text-anchor="middle"><textPath startOffset="22.20632615414155" xlink:href="#id32">August</textPath></text><line stroke="#e1ed5e" stroke-width="0.3" x1="26.63291911575756" x2="22.317208475507996" y1="142.92168965132927" y2="145.44649492493687" /><path d="M 25.769776987707644 143.4266507060508 a86.0,86.0 0 0,1 -11.730757126820373,-40.83630448921669" fill="none" id="id33" stroke="none" /><text fill="#e1ed5e" style="font-size:6.75px; font-family:Arial;" text-anchor="middle"><textPath startOffset="21.46611528233685" xlink:href="#id33">September</textPath></text><line stroke="#e1ed5e" stroke-width="0.3" x1="15.007084014347285" x2="10.007500721073583" y1="101.09737516637583" y2="101.16192664675087" /><path d="M 14.007167355692545 101.11028546245083 a86.0,86.0 0 0,1 10.666146001902534,-42.60595125391555" fill="none" id="id34" stroke="none" /><text fill="#e1ed5e" style="font-size:6.75px; font-family:Arial;" text-anchor="middle"><textPath startOffset="22.20632615414155" xlink:href="#id34">October</textPath></text><line stroke="#e1ed5e" stroke-width="0.3" x1="26.266209847984243" x2="21.928928074336255" y1="57.711370442889674" y2="55.22380399835377" /><path d="M 25.398753493254645 57.213857153982495 a86.0,86.0 0 0,1 29.58750427330803,-30.492523968695096" fill="none" id="id35" stroke="none" /><text fill="#e1ed5e" style="font-size:6.75px; font-family:Arial;" text-anchor="middle"><textPath startOffset="21.46611528233685" xlink:href="#id35">November</textPath></text><line stroke="#e1ed5e" stroke-width="0.3" x1="56.762969772571076" x2="54.21961505331055" y1="26.818313649435495" y2="22.513508569990535" /><path d="M 56.25429882871897 25.957352633546506 a86.0,86.0 0 0,1 42.265352541879196,-11.944610805530505" fill="none" id="id36" stroke="none" /><text fill="#e1ed5e" style="font-size:6.75px; font-family:Arial;" text-anchor="middle"><textPath startOffset="22.20632615414155" xlink:href="#id36">December</textPath></text></svg>