<?xml version="1.0" encoding="utf-8" ?>
<svg baseProfile="full" height="300mm" version="1.1" viewBox="0,0,200,300" width="200mm" xmlns="http://www.w3.org/2000/svg" xmlns:ev="http://www.w3.org/2001/xml-events" xmlns:xlink="http://www.w3.org/1999/xlink"><defs /><rect fill="#222222" height="300" width="200" x="0" y="0" /><text fill="#555555" style="font-size:6px; font-family:Arial;" x="11" y="19">Running for 575 Days</text><text fill="#555555" style="font-size:6px; font-family:Arial;" x="11" y="39">Races</text><text fill="#555555" style="font-size:8px; font-family:Arial;" x="11" y="59">1</text><text fill="#FFFFFF" style="font-size:10px; font-family:Arial; font-weight:bold;" x="23" y="59">Half</text><text fill="#555555" style="font-size:6px; font-family:Arial;" x="49" y="59">14x</text><text fill="#555555" style="font-size:8px; font-family:Arial;" x="11" y="77">2</text><text fill="#FFFFFF" style="font-size:10px; font-family:Arial; font-weight:bold;" x="23" y="77">10K</text><text fill="#555555" style="font-size:6px; font-family:Arial;" x="49" y="77">63x</text><text fill="#555555" style="font-size:6px; font-family:Arial;" x="11" y="115">Stats</text><text fill="#555555" style="font-size:5px; font-family:Arial;" x="11" y="121">Distance</text><text fill="#FFFFFF" style="font-size:10px; font-family:Arial; font-weight:bold;" x="11" y="132">1736</text><text fill="#555555" style="font-size:6px; font-family:Arial;" x="35" y="132">km</text><text fill="#555555" style="font-size:5px; font-family:Arial;" x="53" y="121">Runs</text><text fill="#FFFFFF" style="font-size:10px; font-family:Arial; font-weight:bold;" x="53" y="132">195</text><text fill="#555555" style="font-size:5px; font-family:Arial;" x="11" y="149">Avg Pace</text><text fill="#FFFFFF" style="font-size:10px; font-family:Arial; font-weight:bold;" x="11" y="160">5'40"</text><text fill="#555555" style="font-size:5px; font-family:Arial;" x="53" y="149">Streak</text><text fill="#FFFFFF" style="font-size:10px; font-family:Arial; font-weight:bold;" x="53" y="160">58</text><text fill="#555555" style="font-size:6px; font-family:Arial;" x="65" y="160">d</text><text fill="#555555" style="font-size:5px; font-family:Arial;" x="11" y="177">Time</text><text fill="#FFFFFF" style="font-size:10px; font-family:Arial; font-weight:bold;" x="11" y="188">164</text><text fill="#555555" style="font-size:6px; font-family:Arial;" x="29" y="188">h</text><text fill="#555555" style="font-size:5px; font-family:Arial;" x="53" y="177">Longest</text><text fill="#FFFFFF" style="font-size:10px; font-family:Arial; font-weight:bold;" x="53" y="188">30.0</text><text fill="#555555" style="font-size:5px; font-family:Arial;" x="11" y="252.0645161290322">Runner</text><text fill="#FFFFFF" style="font-size:8px; font-family:Arial; font-weight:bold;" x="11" y="262.0645161290322">Ayu</text><text fill="#555555" style="font-size:7px; font-family:Arial;" x="11" y="285.5806451612903">running_page/2024</text><circle cx="85.41666666666667" cy="17.419354838709676" fill="#555555" r="3.3125"><title>2024-01-01</title></circle><circle cx="85.41666666666667" cy="26.25806451612903" fill="#555555" r="3.3125"><title>2024-01-02</title></circle><circle cx="85.41666666666667" cy="35.096774193548384" fill="#555555" r="3.3125"><title>2024-01-03</title></circle><circle cx="85.41666666666667" cy="43.935483870967744" fill="#555555" r="3.3125"><title>2024-01-04</title></circle><circle cx="85.41666666666667" cy="52.774193548387096" fill="#555555" r="3.3125"><title>2024-01-05</title></circle><circle cx="85.41666666666667" cy="61.61290322580645" fill="#555555" r="3.3125"><title>2024-01-06</title></circle><circle cx="85.41666666666667" cy="70.45161290322581" fill="#555555" r="3.3125"><title>2024-01-07</title></circle><circle cx="85.41666666666667" cy="79.29032258064517" fill="#555555" r="3.3125"><title>2024-01-08</title></circle><circle cx="85.41666666666667" cy="88.12903225806451" fill="#555555" r="3.3125"><title>2024-01-09</title></circle><circle cx="85.41666666666667" cy="96.96774193548387" fill="#555555" r="3.3125"><title>2024-01-10</title></circle><circle cx="85.41666666666667" cy="105.80645161290322" fill="#555555" r="3.3125"><title>2024-01-11</title></circle><circle cx="85.41666666666667" cy="114.64516129032258" fill="#555555" r="3.3125"><title>2024-01-12</title></circle><circle cx="85.41666666666667" cy="123.48387096774194" fill="#555555" r="3.3125"><title>2024-01-13</title></circle><circle cx="85.41666666666667" cy="132.32258064516128" fill="#555555" r="3.3125"><title>2024-01-14</title></circle><circle cx="85.41666666666667" cy="141.16129032258064" fill="#555555" r="3.3125"><title>2024-01-15</title></circle><circle cx="85.41666666666667" cy="149.99999999999997" fill="#555555" r="3.3125"><title>2024-01-16</title></circle><circle cx="85.41666666666667" cy="158.83870967741933" fill="#555555" r="3.3125"><title>2024-01-17</title></circle><circle cx="85.41666666666667" cy="167.6774193548387" fill="#555555" r="3.3125"><title>2024-01-18</title></circle><circle cx="85.41666666666667" cy="176.51612903225805" fill="#555555" r="3.3125"><title>2024-01-19</title></circle><circle cx="85.41666666666667" cy="185.35483870967738" fill="#555555" r="3.3125"><title>2024-01-20</title></circle><circle cx="85.41666666666667" cy="194.19354838709674" fill="#555555" r="3.3125"><title>2024-01-21</title></circle><circle cx="85.41666666666667" cy="203.0322580645161" fill="#555555" r="3.3125"><title>2024-01-22</title></circle><circle cx="85.41666666666667" cy="211.87096774193546" fill="#555555" r="3.3125"><title>2024-01-23</title></circle><circle cx="85.41666666666667" cy="220.70967741935482" fill="#555555" r="3.3125"><title>2024-01-24</title></circle><circle cx="85.41666666666667" cy="229.54838709677418" fill="#555555" r="3.3125"><title>2024-01-25</title></circle><circle cx="85.41666666666667" cy="238.3870967741935" fill="#555555" r="3.3125"><title>2024-01-26</title></circle><circle cx="85.41666666666667" cy="247.22580645161287" fill="#555555" r="3.3125"><title>2024-01-27</title></circle><circle cx="85.41666666666667" cy="256.06451612903226" fill="#555555" r="3.3125"><title>2024-01-28</title></circle><circle cx="85.41666666666667" cy="264.90322580645164" fill="#555555" r="3.3125"><title>2024-01-29</title></circle><circle cx="85.41666666666667" cy="273.741935483871" fill="#555555" r="3.3125"><title>2024-01-30</title></circle><circle cx="85.41666666666667" cy="282.5806451612903" fill="#555555" r="3.3125"><title>2024-01-31</title></circle><circle cx="94.25" cy="17.419354838709676" fill="#555555" r="3.3125"><title>2024-02-01</title></circle><circle cx="94.25" cy="26.25806451612903" fill="#555555" r="3.3125"><title>2024-02-02</title></circle><circle cx="94.25" cy="35.096774193548384" fill="#555555" r="3.3125"><title>2024-02-03</title></circle><circle cx="94.25" cy="43.935483870967744" fill="#555555" r="3.3125"><title>2024-02-04</title></circle><circle cx="94.25" cy="52.774193548387096" fill="#555555" r="3.3125"><title>2024-02-05</title></circle><circle cx="94.25" cy="61.61290322580645" fill="#555555" r="3.3125"><title>2024-02-06</title></circle><circle cx="94.25" cy="70.45161290322581" fill="#555555" r="3.3125"><title>2024-02-07</title></circle><circle cx="94.25" cy="79.29032258064517" fill="#555555" r="3.3125"><title>2024-02-08</title></circle><circle cx="94.25" cy="88.12903225806451" fill="#555555" r="3.3125"><title>2024-02-09</title></circle><circle cx="94.25" cy="96.96774193548387" fill="#555555" r="3.3125"><title>2024-02-10</title></circle><circle cx="94.25" cy="105.80645161290322" fill="#555555" r="3.3125"><title>2024-02-11</title></circle><circle cx="94.25" cy="114.64516129032258" fill="#555555" r="3.3125"><title>2024-02-12</title></circle><circle cx="94.25" cy="123.48387096774194" fill="#555555" r="3.3125"><title>2024-02-13</title></circle><circle cx="94.25" cy="132.32258064516128" fill="#555555" r="3.3125"><title>2024-02-14</title></circle><circle cx="94.25" cy="141.16129032258064" fill="#555555" r="3.3125"><title>2024-02-15</title></circle><circle cx="94.25" cy="149.99999999999997" fill="#555555" r="3.3125"><title>2024-02-16</title></circle><circle cx="94.25" cy="158.83870967741933" fill="#555555" r="3.3125"><title>2024-02-17</title></circle><circle cx="94.25" cy="167.6774193548387" fill="#555555" r="3.3125"><title>2024-02-18</title></circle><circle cx="94.25" cy="176.51612903225805" fill="#555555" r="3.3125"><title>2024-02-19</title></circle><circle cx="94.25" cy="185.35483870967738" fill="#555555" r="3.3125"><title>2024-02-20</title></circle><circle cx="94.25" cy="194.19354838709674" fill="#555555" r="3.3125"><title>2024-02-21</title></circle><circle cx="94.25" cy="203.0322580645161" fill="#555555" r="3.3125"><title>2024-02-22</title></circle><circle cx="94.25" cy="211.87096774193546" fill="#555555" r="3.3125"><title>2024-02-23</title></circle><circle cx="94.25" cy="220.70967741935482" fill="#555555" r="3.3125"><title>2024-02-24</title></circle><circle cx="94.25" cy="229.54838709677418" fill="#555555" r="3.3125"><title>2024-02-25</title></circle><circle cx="94.25" cy="238.3870967741935" fill="#555555" r="3.3125"><title>2024-02-26</title></circle><circle cx="94.25" cy="247.22580645161287" fill="#555555" r="3.3125"><title>2024-02-27</title></circle><circle cx="94.25" cy="256.06451612903226" fill="#555555" r="3.3125"><title>2024-02-28</title></circle><circle cx="94.25" cy="264.90322580645164" fill="#555555" r="3.3125"><title>2024-02-29</title></circle><circle cx="103.08333333333334" cy="17.419354838709676" fill="#555555" r="3.3125"><title>2024-03-01</title></circle><circle cx="103.08333333333334" cy="26.25806451612903" fill="#555555" r="3.3125"><title>2024-03-02</title></circle><circle cx="103.08333333333334" cy="35.096774193548384" fill="#555555" r="3.3125"><title>2024-03-03</title></circle><circle cx="103.08333333333334" cy="43.935483870967744" fill="#555555" r="3.3125"><title>2024-03-04</title></circle><circle cx="103.08333333333334" cy="52.774193548387096" fill="#555555" r="3.3125"><title>2024-03-05</title></circle><circle cx="103.08333333333334" cy="61.61290322580645" fill="#555555" r="3.3125"><title>2024-03-06</title></circle><circle cx="103.08333333333334" cy="70.45161290322581" fill="#555555" r="3.3125"><title>2024-03-07</title></circle><circle cx="103.08333333333334" cy="79.29032258064517" fill="#555555" r="3.3125"><title>2024-03-08</title></circle><circle cx="103.08333333333334" cy="88.12903225806451" fill="#555555" r="3.3125"><title>2024-03-09</title></circle><circle cx="103.08333333333334" cy="96.96774193548387" fill="#555555" r="3.3125"><title>2024-03-10</title></circle><circle cx="103.08333333333334" cy="105.80645161290322" fill="#555555" r="3.3125"><title>2024-03-11</title></circle><circle cx="103.08333333333334" cy="114.64516129032258" fill="#555555" r="3.3125"><title>2024-03-12</title></circle><circle cx="103.08333333333334" cy="123.48387096774194" fill="#555555" r="3.3125"><title>2024-03-13</title></circle><circle cx="103.08333333333334" cy="132.32258064516128" fill="#555555" r="3.3125"><title>2024-03-14</title></circle><circle cx="103.08333333333334" cy="141.16129032258064" fill="#555555" r="3.3125"><title>2024-03-15</title></circle><circle cx="103.08333333333334" cy="149.99999999999997" fill="#555555" r="3.3125"><title>2024-03-16</title></circle><circle cx="103.08333333333334" cy="158.83870967741933" fill="#555555" r="3.3125"><title>2024-03-17</title></circle><circle cx="103.08333333333334" cy="167.6774193548387" fill="#555555" r="3.3125"><title>2024-03-18</title></circle><circle cx="103.08333333333334" cy="176.51612903225805" fill="#555555" r="3.3125"><title>2024-03-19</title></circle><circle cx="103.08333333333334" cy="185.35483870967738" fill="#555555" r="3.3125"><title>2024-03-20</title></circle><circle cx="103.08333333333334" cy="194.19354838709674" fill="#555555" r="3.3125"><title>2024-03-21</title></circle><circle cx="103.08333333333334" cy="203.0322580645161" fill="#555555" r="3.3125"><title>2024-03-22</title></circle><circle cx="103.08333333333334" cy="211.87096774193546" fill="#555555" r="3.3125"><title>2024-03-23</title></circle><circle cx="103.08333333333334" cy="220.70967741935482" fill="#555555" r="3.3125"><title>2024-03-24</title></circle><circle cx="103.08333333333334" cy="229.54838709677418" fill="#555555" r="3.3125"><title>2024-03-25</title></circle><circle cx="103.08333333333334" cy="238.3870967741935" fill="#555555" r="3.3125"><title>2024-03-26</title></circle><circle cx="103.08333333333334" cy="247.22580645161287" fill="#555555" r="3.3125"><title>2024-03-27</title></circle><circle cx="103.08333333333334" cy="256.06451612903226" fill="#555555" r="3.3125"><title>2024-03-28</title></circle><circle cx="103.08333333333334" cy="264.90322580645164" fill="#555555" r="3.3125"><title>2024-03-29</title></circle><circle cx="103.08333333333334" cy="273.741935483871" fill="#555555" r="3.3125"><title>2024-03-30</title></circle><circle cx="103.08333333333334" cy="282.5806451612903" fill="#555555" r="3.3125"><title>2024-03-31</title></circle><circle cx="111.91666666666667" cy="17.419354838709676" fill="#555555" r="3.3125"><title>2024-04-01</title></circle><circle cx="111.91666666666667" cy="26.25806451612903" fill="#555555" r="3.3125"><title>2024-04-02</title></circle><circle cx="111.91666666666667" cy="35.096774193548384" fill="#555555" r="3.3125"><title>2024-04-03</title></circle><circle cx="111.91666666666667" cy="43.935483870967744" fill="#555555" r="3.3125"><title>2024-04-04</title></circle><circle cx="111.91666666666667" cy="52.774193548387096" fill="#555555" r="3.3125"><title>2024-04-05</title></circle><circle cx="111.91666666666667" cy="61.61290322580645" fill="#555555" r="3.3125"><title>2024-04-06</title></circle><circle cx="111.91666666666667" cy="70.45161290322581" fill="#555555" r="3.3125"><title>2024-04-07</title></circle><circle cx="111.91666666666667" cy="79.29032258064517" fill="#555555" r="3.3125"><title>2024-04-08</title></circle><circle cx="111.91666666666667" cy="88.12903225806451" fill="#555555" r="3.3125"><title>2024-04-09</title></circle><circle cx="111.91666666666667" cy="96.96774193548387" fill="#555555" r="3.3125"><title>2024-04-10</title></circle><circle cx="111.91666666666667" cy="105.80645161290322" fill="#555555" r="3.3125"><title>2024-04-11</title></circle><circle cx="111.91666666666667" cy="114.64516129032258" fill="#555555" r="3.3125"><title>2024-04-12</title></circle><circle cx="111.91666666666667" cy="123.48387096774194" fill="#555555" r="3.3125"><title>2024-04-13</title></circle><circle cx="111.91666666666667" cy="132.32258064516128" fill="#555555" r="3.3125"><title>2024-04-14</title></circle><circle cx="111.91666666666667" cy="141.16129032258064" fill="#555555" r="3.3125"><title>2024-04-15</title></circle><circle cx="111.91666666666667" cy="149.99999999999997" fill="#555555" r="3.3125"><title>2024-04-16</title></circle><circle cx="111.91666666666667" cy="158.83870967741933" fill="#555555" r="3.3125"><title>2024-04-17</title></circle><circle cx="111.91666666666667" cy="167.6774193548387" fill="#555555" r="3.3125"><title>2024-04-18</title></circle><circle cx="111.91666666666667" cy="176.51612903225805" fill="#555555" r="3.3125"><title>2024-04-19</title></circle><circle cx="111.91666666666667" cy="185.35483870967738" fill="#555555" r="3.3125"><title>2024-04-20</title></circle><circle cx="111.91666666666667" cy="194.19354838709674" fill="#555555" r="3.3125"><title>2024-04-21</title></circle><circle cx="111.91666666666667" cy="203.0322580645161" fill="#555555" r="3.3125"><title>2024-04-22</title></circle><circle cx="111.91666666666667" cy="211.87096774193546" fill="#555555" r="3.3125"><title>2024-04-23</title></circle><circle cx="111.91666666666667" cy="220.70967741935482" fill="#555555" r="3.3125"><title>2024-04-24</title></circle><circle cx="111.91666666666667" cy="229.54838709677418" fill="#555555" r="3.3125"><title>2024-04-25</title></circle><circle cx="111.91666666666667" cy="238.3870967741935" fill="#555555" r="3.3125"><title>2024-04-26</title></circle><circle cx="111.91666666666667" cy="247.22580645161287" fill="#555555" r="3.3125"><title>2024-04-27</title></circle><circle cx="111.91666666666667" cy="256.06451612903226" fill="#555555" r="3.3125"><title>2024-04-28</title></circle><circle cx="111.91666666666667" cy="264.90322580645164" fill="#555555" r="3.3125"><title>2024-04-29</title></circle><circle cx="111.91666666666667" cy="273.741935483871" fill="#555555" r="3.3125"><title>2024-04-30</title></circle><circle cx="120.75000000000001" cy="17.419354838709676" fill="#555555" r="3.3125"><title>2024-05-01</title></circle><circle cx="120.75000000000001" cy="26.25806451612903" fill="#555555" r="3.3125"><title>2024-05-02</title></circle><circle cx="120.75000000000001" cy="35.096774193548384" fill="#555555" r="3.3125"><title>2024-05-03</title></circle><circle cx="120.75000000000001" cy="43.935483870967744" fill="#555555" r="3.3125"><title>2024-05-04</title></circle><circle cx="120.75000000000001" cy="52.774193548387096" fill="#555555" r="3.3125"><title>2024-05-05</title></circle><circle cx="120.75000000000001" cy="61.61290322580645" fill="#555555" r="3.3125"><title>2024-05-06</title></circle><circle cx="120.75000000000001" cy="70.45161290322581" fill="#555555" r="3.3125"><title>2024-05-07</title></circle><circle cx="120.75000000000001" cy="79.29032258064517" fill="#555555" r="3.3125"><title>2024-05-08</title></circle><circle cx="120.75000000000001" cy="88.12903225806451" fill="#555555" r="3.3125"><title>2024-05-09</title></circle><circle cx="120.75000000000001" cy="96.96774193548387" fill="#555555" r="3.3125"><title>2024-05-10</title></circle><circle cx="120.75000000000001" cy="105.80645161290322" fill="#555555" r="3.3125"><title>2024-05-11</title></circle><circle cx="120.75000000000001" cy="114.64516129032258" fill="#555555" r="3.3125"><title>2024-05-12</title></circle><circle cx="120.75000000000001" cy="123.48387096774194" fill="#555555" r="3.3125"><title>2024-05-13</title></circle><circle cx="120.75000000000001" cy="132.32258064516128" fill="#555555" r="3.3125"><title>2024-05-14</title></circle><circle cx="120.75000000000001" cy="141.16129032258064" fill="#555555" r="3.3125"><title>2024-05-15</title></circle><circle cx="120.75000000000001" cy="149.99999999999997" fill="#555555" r="3.3125"><title>2024-05-16</title></circle><circle cx="120.75000000000001" cy="158.83870967741933" fill="#555555" r="3.3125"><title>2024-05-17</title></circle><circle cx="120.75000000000001" cy="167.6774193548387" fill="#555555" r="3.3125"><title>2024-05-18</title></circle><circle cx="120.75000000000001" cy="176.51612903225805" fill="#555555" r="3.3125"><title>2024-05-19</title></circle><circle cx="120.75000000000001" cy="185.35483870967738" fill="#555555" r="3.3125"><title>2024-05-20</title></circle><circle cx="120.75000000000001" cy="194.19354838709674" fill="#555555" r="3.3125"><title>2024-05-21</title></circle><circle cx="120.75000000000001" cy="203.0322580645161" fill="#555555" r="3.3125"><title>2024-05-22</title></circle><circle cx="120.75000000000001" cy="211.87096774193546" fill="#555555" r="3.3125"><title>2024-05-23</title></circle><circle cx="120.75000000000001" cy="220.70967741935482" fill="#555555" r="3.3125"><title>2024-05-24</title></circle><circle cx="120.75000000000001" cy="229.54838709677418" fill="#555555" r="3.3125"><title>2024-05-25</title></circle><circle cx="120.75000000000001" cy="238.3870967741935" fill="#555555" r="3.3125"><title>2024-05-26</title></circle><circle cx="120.75000000000001" cy="247.22580645161287" fill="#555555" r="3.3125"><title>2024-05-27</title></circle><circle cx="120.75000000000001" cy="256.06451612903226" fill="#555555" r="3.3125"><title>2024-05-28</title></circle><circle cx="120.75000000000001" cy="264.90322580645164" fill="#555555" r="3.3125"><title>2024-05-29</title></circle><circle cx="120.75000000000001" cy="273.741935483871" fill="#555555" r="3.3125"><title>2024-05-30</title></circle><circle cx="120.75000000000001" cy="282.5806451612903" fill="#555555" r="3.3125"><title>2024-05-31</title></circle><circle cx="129.58333333333334" cy="17.419354838709676" fill="#555555" r="3.3125"><title>2024-06-01</title></circle><circle cx="129.58333333333334" cy="26.25806451612903" fill="#555555" r="3.3125"><title>2024-06-02</title></circle><circle cx="129.58333333333334" cy="35.096774193548384" fill="#555555" r="3.3125"><title>2024-06-03</title></circle><circle cx="129.58333333333334" cy="43.935483870967744" fill="#555555" r="3.3125"><title>2024-06-04</title></circle><circle cx="129.58333333333334" cy="52.774193548387096" fill="#555555" r="3.3125"><title>2024-06-05</title></circle><circle cx="129.58333333333334" cy="61.61290322580645" fill="#555555" r="3.3125"><title>2024-06-06</title></circle><circle cx="129.58333333333334" cy="70.45161290322581" fill="#29abab" r="3.3125"><title>2024-06-07: 5 km</title></circle><circle cx="129.58333333333334" cy="79.29032258064517" fill="#2aaaaa" r="3.3125"><title>2024-06-08: 5 km</title></circle><circle cx="129.58333333333334" cy="88.12903225806451" fill="#555555" r="3.3125"><title>2024-06-09</title></circle><circle cx="129.58333333333334" cy="96.96774193548387" fill="#21bbbb" r="3.3125"><title>2024-06-10: 6 km</title></circle><circle cx="129.58333333333334" cy="105.80645161290322" fill="#2aaaaa" r="3.3125"><title>2024-06-11: 5 km</title></circle><circle cx="129.58333333333334" cy="114.64516129032258" fill="#2aaaaa" r="3.3125"><title>2024-06-12: 5 km</title></circle><circle cx="129.58333333333334" cy="123.48387096774194" fill="#2aaaaa" r="3.3125"><title>2024-06-13: 5 km</title></circle><circle cx="129.58333333333334" cy="132.32258064516128" fill="#555555" r="3.3125"><title>2024-06-14</title></circle><circle cx="129.58333333333334" cy="141.16129032258064" fill="#555555" r="3.3125"><title>2024-06-15</title></circle><circle cx="129.58333333333334" cy="149.99999999999997" fill="#21bbbb" r="3.3125"><title>2024-06-16: 6 km</title></circle><circle cx="129.58333333333334" cy="158.83870967741933" fill="#2aaaaa" r="3.3125"><title>2024-06-17: 5 km</title></circle><circle cx="129.58333333333334" cy="167.6774193548387" fill="#2aaaaa" r="3.3125"><title>2024-06-18: 5 km</title></circle><circle cx="129.58333333333334" cy="176.51612903225805" fill="#2aaaaa" r="3.3125"><title>2024-06-19: 5 km</title></circle><circle cx="129.58333333333334" cy="185.35483870967738" fill="#2aaaaa" r="3.3125"><title>2024-06-20: 5 km</title></circle><circle cx="129.58333333333334" cy="194.19354838709674" fill="#555555" r="3.3125"><title>2024-06-21</title></circle><circle cx="129.58333333333334" cy="203.0322580645161" fill="#23b7b7" r="3.3125"><title>2024-06-22: 5 km</title></circle><circle cx="129.58333333333334" cy="211.87096774193546" fill="#2aaaaa" r="3.3125"><title>2024-06-23: 5 km</title></circle><circle cx="129.58333333333334" cy="220.70967741935482" fill="#28adad" r="3.3125"><title>2024-06-24: 5 km</title></circle><circle cx="129.58333333333334" cy="229.54838709677418" fill="#555555" r="3.3125"><title>2024-06-25</title></circle><circle cx="129.58333333333334" cy="238.3870967741935" fill="#2aaaaa" r="3.3125"><title>2024-06-26: 5 km</title></circle><circle cx="129.58333333333334" cy="247.22580645161287" fill="#25b4b4" r="3.3125"><title>2024-06-27: 5 km</title></circle><circle cx="129.58333333333334" cy="256.06451612903226" fill="#555555" r="3.3125"><title>2024-06-28</title></circle><circle cx="129.58333333333334" cy="264.90322580645164" fill="#21bbbb" r="3.3125"><title>2024-06-29: 6 km</title></circle><circle cx="129.58333333333334" cy="273.741935483871" fill="#ff69b4" r="3.3125"><title>2024-06-30: 10 km</title></circle><circle cx="138.41666666666666" cy="17.419354838709676" fill="#555555" r="3.3125"><title>2024-07-01</title></circle><circle cx="138.41666666666666" cy="26.25806451612903" fill="#21bbbb" r="3.3125"><title>2024-07-02: 6 km</title></circle><circle cx="138.41666666666666" cy="35.096774193548384" fill="#26b2b2" r="3.3125"><title>2024-07-03: 5 km</title></circle><circle cx="138.41666666666666" cy="43.935483870967744" fill="#2aaaaa" r="3.3125"><title>2024-07-04: 5 km</title></circle><circle cx="138.41666666666666" cy="52.774193548387096" fill="#2aaaaa" r="3.3125"><title>2024-07-05: 5 km</title></circle><circle cx="138.41666666666666" cy="61.61290322580645" fill="#2aaaaa" r="3.3125"><title>2024-07-06: 5 km</title></circle><circle cx="138.41666666666666" cy="70.45161290322581" fill="#ff69b4" r="3.3125"><title>2024-07-07: 10 km</title></circle><circle cx="138.41666666666666" cy="79.29032258064517" fill="#329a9a" r="3.3125"><title>2024-07-08: 4 km</title></circle><circle cx="138.41666666666666" cy="88.12903225806451" fill="#21bbbb" r="3.3125"><title>2024-07-09: 6 km</title></circle><circle cx="138.41666666666666" cy="96.96774193548387" fill="#1acaca" r="3.3125"><title>2024-07-10: 6 km</title></circle><circle cx="138.41666666666666" cy="105.80645161290322" fill="#555555" r="3.3125"><title>2024-07-11</title></circle><circle cx="138.41666666666666" cy="114.64516129032258" fill="#555555" r="3.3125"><title>2024-07-12</title></circle><circle cx="138.41666666666666" cy="123.48387096774194" fill="#ff69b4" r="3.3125"><title>2024-07-13: 11 km</title></circle><circle cx="138.41666666666666" cy="132.32258064516128" fill="#21bbbb" r="3.3125"><title>2024-07-14: 6 km</title></circle><circle cx="138.41666666666666" cy="141.16129032258064" fill="#555555" r="3.3125"><title>2024-07-15</title></circle><circle cx="138.41666666666666" cy="149.99999999999997" fill="#21bbbb" r="3.3125"><title>2024-07-16: 6 km</title></circle><circle cx="138.41666666666666" cy="158.83870967741933" fill="#329999" r="3.3125"><title>2024-07-17: 4 km</title></circle><circle cx="138.41666666666666" cy="167.6774193548387" fill="#ff69b4" r="3.3125"><title>2024-07-18: 10 km</title></circle><circle cx="138.41666666666666" cy="176.51612903225805" fill="#21bbbb" r="3.3125"><title>2024-07-19: 6 km</title></circle><circle cx="138.41666666666666" cy="185.35483870967738" fill="#555555" r="3.3125"><title>2024-07-20</title></circle><circle cx="138.41666666666666" cy="194.19354838709674" fill="#ff69b4" r="3.3125"><title>2024-07-21: 15 km</title></circle><circle cx="138.41666666666666" cy="203.0322580645161" fill="#555555" r="3.3125"><title>2024-07-22</title></circle><circle cx="138.41666666666666" cy="211.87096774193546" fill="#21bbbb" r="3.3125"><title>2024-07-23: 6 km</title></circle><circle cx="138.41666666666666" cy="220.70967741935482" fill="#10dddd" r="3.3125"><title>2024-07-24: 8 km</title></circle><circle cx="138.41666666666666" cy="229.54838709677418" fill="#21bbbb" r="3.3125"><title>2024-07-25: 6 km</title></circle><circle cx="138.41666666666666" cy="238.3870967741935" fill="#555555" r="3.3125"><title>2024-07-26</title></circle><circle cx="138.41666666666666" cy="247.22580645161287" fill="#ff69b4" r="3.3125"><title>2024-07-27: 12 km</title></circle><circle cx="138.41666666666666" cy="256.06451612903226" fill="#ff69b4" r="3.3125"><title>2024-07-28: 15 km</title></circle><circle cx="138.41666666666666" cy="264.90322580645164" fill="#08eeee" r="3.3125"><title>2024-07-29: 9 km</title></circle><circle cx="138.41666666666666" cy="273.741935483871" fill="#21bbbb" r="3.3125"><title>2024-07-30: 6 km</title></circle><circle cx="138.41666666666666" cy="282.5806451612903" fill="#22bbbb" r="3.3125"><title>2024-07-31: 6 km</title></circle><circle cx="147.25" cy="17.419354838709676" fill="#ff69b4" r="3.3125"><title>2024-08-01: 10 km</title></circle><circle cx="147.25" cy="26.25806451612903" fill="#369191" r="3.3125"><title>2024-08-02: 3 km</title></circle><circle cx="147.25" cy="35.096774193548384" fill="#21bbbb" r="3.3125"><title>2024-08-03: 6 km</title></circle><circle cx="147.25" cy="43.935483870967744" fill="#ff69b4" r="3.3125"><title>2024-08-04: 15 km</title></circle><circle cx="147.25" cy="52.774193548387096" fill="#11dddd" r="3.3125"><title>2024-08-05: 8 km</title></circle><circle cx="147.25" cy="61.61290322580645" fill="#22bbbb" r="3.3125"><title>2024-08-06: 6 km</title></circle><circle cx="147.25" cy="70.45161290322581" fill="#ff69b4" r="3.3125"><title>2024-08-07: 10 km</title></circle><circle cx="147.25" cy="79.29032258064517" fill="#21bbbb" r="3.3125"><title>2024-08-08: 6 km</title></circle><circle cx="147.25" cy="88.12903225806451" fill="#21bbbb" r="3.3125"><title>2024-08-09: 6 km</title></circle><circle cx="147.25" cy="96.96774193548387" fill="#ff69b4" r="3.3125"><title>2024-08-10: 12 km</title></circle><circle cx="147.25" cy="105.80645161290322" fill="#ff69b4" r="3.3125"><title>2024-08-11: 15 km</title></circle><circle cx="147.25" cy="114.64516129032258" fill="#21bbbb" r="3.3125"><title>2024-08-12: 6 km</title></circle><circle cx="147.25" cy="123.48387096774194" fill="#10dddd" r="3.3125"><title>2024-08-13: 8 km</title></circle><circle cx="147.25" cy="132.32258064516128" fill="#21bbbb" r="3.3125"><title>2024-08-14: 6 km</title></circle><circle cx="147.25" cy="141.16129032258064" fill="#ff69b4" r="3.3125"><title>2024-08-15: 10 km</title></circle><circle cx="147.25" cy="149.99999999999997" fill="#ff69b4" r="3.3125"><title>2024-08-16: 11 km</title></circle><circle cx="147.25" cy="158.83870967741933" fill="#ff69b4" r="3.3125"><title>2024-08-17: 10 km</title></circle><circle cx="147.25" cy="167.6774193548387" fill="#ff69b4" r="3.3125"><title>2024-08-18: 18 km</title></circle><circle cx="147.25" cy="176.51612903225805" fill="#21bbbb" r="3.3125"><title>2024-08-19: 6 km</title></circle><circle cx="147.25" cy="185.35483870967738" fill="#21bcbc" r="3.3125"><title>2024-08-20: 6 km</title></circle><circle cx="147.25" cy="194.19354838709674" fill="#ff69b4" r="3.3125"><title>2024-08-21: 10 km</title></circle><circle cx="147.25" cy="203.0322580645161" fill="#2aaaaa" r="3.3125"><title>2024-08-22: 5 km</title></circle><circle cx="147.25" cy="211.87096774193546" fill="#21bbbb" r="3.3125"><title>2024-08-23: 6 km</title></circle><circle cx="147.25" cy="220.70967741935482" fill="#08eeee" r="3.3125"><title>2024-08-24: 9 km</title></circle><circle cx="147.25" cy="229.54838709677418" fill="#ff69b4" r="3.3125"><title>2024-08-25: 18 km</title></circle><circle cx="147.25" cy="238.3870967741935" fill="#21bbbb" r="3.3125"><title>2024-08-26: 6 km</title></circle><circle cx="147.25" cy="247.22580645161287" fill="#0de3e3" r="3.3125"><title>2024-08-27: 8 km</title></circle><circle cx="147.25" cy="256.06451612903226" fill="#21bbbb" r="3.3125"><title>2024-08-28: 6 km</title></circle><circle cx="147.25" cy="264.90322580645164" fill="#ff69b4" r="3.3125"><title>2024-08-29: 10 km</title></circle><circle cx="147.25" cy="273.741935483871" fill="#25b4b4" r="3.3125"><title>2024-08-30: 5 km</title></circle><circle cx="147.25" cy="282.5806451612903" fill="#ff69b4" r="3.3125"><title>2024-08-31: 11 km</title></circle><circle cx="156.08333333333334" cy="17.419354838709676" fill="#ff69b4" r="3.3125"><title>2024-09-01: 15 km</title></circle><circle cx="156.08333333333334" cy="26.25806451612903" fill="#21bbbb" r="3.3125"><title>2024-09-02: 6 km</title></circle><circle cx="156.08333333333334" cy="35.096774193548384" fill="#19cccc" r="3.3125"><title>2024-09-03: 7 km</title></circle><circle cx="156.08333333333334" cy="43.935483870967744" fill="#10dddd" r="3.3125"><title>2024-09-04: 8 km</title></circle><circle cx="156.08333333333334" cy="52.774193548387096" fill="#ff69b4" r="3.3125"><title>2024-09-05: 10 km</title></circle><circle cx="156.08333333333334" cy="61.61290322580645" fill="#ff69b4" r="3.3125"><title>2024-09-06: 10 km</title></circle><circle cx="156.08333333333334" cy="70.45161290322581" fill="#21bbbb" r="3.3125"><title>2024-09-07: 6 km</title></circle><circle cx="156.08333333333334" cy="79.29032258064517" fill="#ff69b4" r="3.3125"><title>2024-09-08: 21 km</title></circle><circle cx="156.08333333333334" cy="88.12903225806451" fill="#2aaaaa" r="3.3125"><title>2024-09-09: 5 km</title></circle><circle cx="156.08333333333334" cy="96.96774193548387" fill="#ff69b4" r="3.3125"><title>2024-09-10: 10 km</title></circle><circle cx="156.08333333333334" cy="105.80645161290322" fill="#ff69b4" r="3.3125"><title>2024-09-11: 15 km</title></circle><circle cx="156.08333333333334" cy="114.64516129032258" fill="#2aaaaa" r="3.3125"><title>2024-09-12: 5 km</title></circle><circle cx="156.08333333333334" cy="123.48387096774194" fill="#ff69b4" r="3.3125"><title>2024-09-13: 10 km</title></circle><circle cx="156.08333333333334" cy="132.32258064516128" fill="#ff69b4" r="3.3125"><title>2024-09-14: 10 km</title></circle><circle cx="156.08333333333334" cy="141.16129032258064" fill="#ff69b4" r="3.3125"><title>2024-09-15: 21 km</title></circle><circle cx="156.08333333333334" cy="149.99999999999997" fill="#2aaaaa" r="3.3125"><title>2024-09-16: 5 km</title></circle><circle cx="156.08333333333334" cy="158.83870967741933" fill="#2aaaaa" r="3.3125"><title>2024-09-17: 5 km</title></circle><circle cx="156.08333333333334" cy="167.6774193548387" fill="#ff69b4" r="3.3125"><title>2024-09-18: 11 km</title></circle><circle cx="156.08333333333334" cy="176.51612903225805" fill="#2aaaaa" r="3.3125"><title>2024-09-19: 5 km</title></circle><circle cx="156.08333333333334" cy="185.35483870967738" fill="#ff69b4" r="3.3125"><title>2024-09-20: 15 km</title></circle><circle cx="156.08333333333334" cy="194.19354838709674" fill="#ff69b4" r="3.3125"><title>2024-09-21: 10 km</title></circle><circle cx="156.08333333333334" cy="203.0322580645161" fill="#ff69b4" r="3.3125"><title>2024-09-22: 21 km</title></circle><circle cx="156.08333333333334" cy="211.87096774193546" fill="#555555" r="3.3125"><title>2024-09-23</title></circle><circle cx="156.08333333333334" cy="220.70967741935482" fill="#555555" r="3.3125"><title>2024-09-24</title></circle><circle cx="156.08333333333334" cy="229.54838709677418" fill="#555555" r="3.3125"><title>2024-09-25</title></circle><circle cx="156.08333333333334" cy="238.3870967741935" fill="#ff69b4" r="3.3125"><title>2024-09-26: 10 km</title></circle><circle cx="156.08333333333334" cy="247.22580645161287" fill="#2aaaaa" r="3.3125"><title>2024-09-27: 5 km</title></circle><circle cx="156.08333333333334" cy="256.06451612903226" fill="#ff69b4" r="3.3125"><title>2024-09-28: 21 km</title></circle><circle cx="156.08333333333334" cy="264.90322580645164" fill="#ff69b4" r="3.3125"><title>2024-09-29: 14 km</title></circle><circle cx="156.08333333333334" cy="273.741935483871" fill="#ff69b4" r="3.3125"><title>2024-09-30: 17 km</title></circle><circle cx="164.91666666666666" cy="17.419354838709676" fill="#ff69b4" r="3.3125"><title>2024-10-01: 10 km</title></circle><circle cx="164.91666666666666" cy="26.25806451612903" fill="#21bbbb" r="3.3125"><title>2024-10-02: 6 km</title></circle><circle cx="164.91666666666666" cy="35.096774193548384" fill="#2aaaaa" r="3.3125"><title>2024-10-03: 5 km</title></circle><circle cx="164.91666666666666" cy="43.935483870967744" fill="#ff69b4" r="3.3125"><title>2024-10-04: 30 km</title></circle><circle cx="164.91666666666666" cy="52.774193548387096" fill="#2fa0a0" r="3.3125"><title>2024-10-05: 4 km</title></circle><circle cx="164.91666666666666" cy="61.61290322580645" fill="#555555" r="3.3125"><title>2024-10-06</title></circle><circle cx="164.91666666666666" cy="70.45161290322581" fill="#21bbbb" r="3.3125"><title>2024-10-07: 6 km</title></circle><circle cx="164.91666666666666" cy="79.29032258064517" fill="#ff69b4" r="3.3125"><title>2024-10-08: 10 km</title></circle><circle cx="164.91666666666666" cy="88.12903225806451" fill="#2aaaaa" r="3.3125"><title>2024-10-09: 5 km</title></circle><circle cx="164.91666666666666" cy="96.96774193548387" fill="#ff69b4" r="3.3125"><title>2024-10-10: 12 km</title></circle><circle cx="164.91666666666666" cy="105.80645161290322" fill="#10dddd" r="3.3125"><title>2024-10-11: 8 km</title></circle><circle cx="164.91666666666666" cy="114.64516129032258" fill="#ff69b4" r="3.3125"><title>2024-10-12: 10 km</title></circle><circle cx="164.91666666666666" cy="123.48387096774194" fill="#ff69b4" r="3.3125"><title>2024-10-13: 22 km</title></circle><circle cx="164.91666666666666" cy="132.32258064516128" fill="#19cccc" r="3.3125"><title>2024-10-14: 7 km</title></circle><circle cx="164.91666666666666" cy="141.16129032258064" fill="#10dddd" r="3.3125"><title>2024-10-15: 8 km</title></circle><circle cx="164.91666666666666" cy="149.99999999999997" fill="#ff69b4" r="3.3125"><title>2024-10-16: 15 km</title></circle><circle cx="164.91666666666666" cy="158.83870967741933" fill="#08eeee" r="3.3125"><title>2024-10-17: 9 km</title></circle><circle cx="164.91666666666666" cy="167.6774193548387" fill="#19cccc" r="3.3125"><title>2024-10-18: 7 km</title></circle><circle cx="164.91666666666666" cy="176.51612903225805" fill="#2aaaaa" r="3.3125"><title>2024-10-19: 5 km</title></circle><circle cx="164.91666666666666" cy="185.35483870967738" fill="#ff69b4" r="3.3125"><title>2024-10-20: 21 km</title></circle><circle cx="164.91666666666666" cy="194.19354838709674" fill="#555555" r="3.3125"><title>2024-10-21</title></circle><circle cx="164.91666666666666" cy="203.0322580645161" fill="#ff69b4" r="3.3125"><title>2024-10-22: 11 km</title></circle><circle cx="164.91666666666666" cy="211.87096774193546" fill="#10dddd" r="3.3125"><title>2024-10-23: 8 km</title></circle><circle cx="164.91666666666666" cy="220.70967741935482" fill="#21bbbb" r="3.3125"><title>2024-10-24: 6 km</title></circle><circle cx="164.91666666666666" cy="229.54838709677418" fill="#21bbbb" r="3.3125"><title>2024-10-25: 6 km</title></circle><circle cx="164.91666666666666" cy="238.3870967741935" fill="#ff69b4" r="3.3125"><title>2024-10-26: 21 km</title></circle><circle cx="164.91666666666666" cy="247.22580645161287" fill="#ff69b4" r="3.3125"><title>2024-10-27: 10 km</title></circle><circle cx="164.91666666666666" cy="256.06451612903226" fill="#19cccc" r="3.3125"><title>2024-10-28: 7 km</title></circle><circle cx="164.91666666666666" cy="264.90322580645164" fill="#ff69b4" r="3.3125"><title>2024-10-29: 15 km</title></circle><circle cx="164.91666666666666" cy="273.741935483871" fill="#1ec2c2" r="3.3125"><title>2024-10-30: 6 km</title></circle><circle cx="164.91666666666666" cy="282.5806451612903" fill="#3b8888" r="3.3125"><title>2024-10-31: 3 km</title></circle><circle cx="173.75" cy="17.419354838709676" fill="#1fbfbf" r="3.3125"><title>2024-11-01: 6 km</title></circle><circle cx="173.75" cy="26.25806451612903" fill="#555555" r="3.3125"><title>2024-11-02</title></circle><circle cx="173.75" cy="35.096774193548384" fill="#ff69b4" r="3.3125"><title>2024-11-03: 23 km</title></circle><circle cx="173.75" cy="43.935483870967744" fill="#555555" r="3.3125"><title>2024-11-04</title></circle><circle cx="173.75" cy="52.774193548387096" fill="#19cccc" r="3.3125"><title>2024-11-05: 7 km</title></circle><circle cx="173.75" cy="61.61290322580645" fill="#ff69b4" r="3.3125"><title>2024-11-06: 10 km</title></circle><circle cx="173.75" cy="70.45161290322581" fill="#04f6f6" r="3.3125"><title>2024-11-07: 9 km</title></circle><circle cx="173.75" cy="79.29032258064517" fill="#ff69b4" r="3.3125"><title>2024-11-08: 15 km</title></circle><circle cx="173.75" cy="88.12903225806451" fill="#19cccc" r="3.3125"><title>2024-11-09: 7 km</title></circle><circle cx="173.75" cy="96.96774193548387" fill="#ff69b4" r="3.3125"><title>2024-11-10: 25 km</title></circle><circle cx="173.75" cy="105.80645161290322" fill="#19cccc" r="3.3125"><title>2024-11-11: 7 km</title></circle><circle cx="173.75" cy="114.64516129032258" fill="#555555" r="3.3125"><title>2024-11-12</title></circle><circle cx="173.75" cy="123.48387096774194" fill="#ff69b4" r="3.3125"><title>2024-11-13: 20 km</title></circle><circle cx="173.75" cy="132.32258064516128" fill="#555555" r="3.3125"><title>2024-11-14</title></circle><circle cx="173.75" cy="141.16129032258064" fill="#1ec2c2" r="3.3125"><title>2024-11-15: 6 km</title></circle><circle cx="173.75" cy="149.99999999999997" fill="#26b2b2" r="3.3125"><title>2024-11-16: 5 km</title></circle><circle cx="173.75" cy="158.83870967741933" fill="#ff69b4" r="3.3125"><title>2024-11-17: 25 km</title></circle><circle cx="173.75" cy="167.6774193548387" fill="#19cccc" r="3.3125"><title>2024-11-18: 7 km</title></circle><circle cx="173.75" cy="176.51612903225805" fill="#555555" r="3.3125"><title>2024-11-19</title></circle><circle cx="173.75" cy="185.35483870967738" fill="#ff69b4" r="3.3125"><title>2024-11-20: 19 km</title></circle><circle cx="173.75" cy="194.19354838709674" fill="#21bbbb" r="3.3125"><title>2024-11-21: 6 km</title></circle><circle cx="173.75" cy="203.0322580645161" fill="#555555" r="3.3125"><title>2024-11-22</title></circle><circle cx="173.75" cy="211.87096774193546" fill="#ff69b4" r="3.3125"><title>2024-11-23: 10 km</title></circle><circle cx="173.75" cy="220.70967741935482" fill="#ff69b4" r="3.3125"><title>2024-11-24: 25 km</title></circle><circle cx="173.75" cy="229.54838709677418" fill="#555555" r="3.3125"><title>2024-11-25</title></circle><circle cx="173.75" cy="238.3870967741935" fill="#ff69b4" r="3.3125"><title>2024-11-26: 11 km</title></circle><circle cx="173.75" cy="247.22580645161287" fill="#555555" r="3.3125"><title>2024-11-27</title></circle><circle cx="173.75" cy="256.06451612903226" fill="#ff69b4" r="3.3125"><title>2024-11-28: 10 km</title></circle><circle cx="173.75" cy="264.90322580645164" fill="#ff69b4" r="3.3125"><title>2024-11-29: 10 km</title></circle><circle cx="173.75" cy="273.741935483871" fill="#ff69b4" r="3.3125"><title>2024-11-30: 17 km</title></circle><circle cx="182.58333333333334" cy="17.419354838709676" fill="#ff69b4" r="3.3125"><title>2024-12-01: 24 km</title></circle><circle cx="182.58333333333334" cy="26.25806451612903" fill="#ff69b4" r="3.3125"><title>2024-12-02: 12 km</title></circle><circle cx="182.58333333333334" cy="35.096774193548384" fill="#ff69b4" r="3.3125"><title>2024-12-03: 12 km</title></circle><circle cx="182.58333333333334" cy="43.935483870967744" fill="#ff69b4" r="3.3125"><title>2024-12-04: 10 km</title></circle><circle cx="182.58333333333334" cy="52.774193548387096" fill="#ff69b4" r="3.3125"><title>2024-12-05: 10 km</title></circle><circle cx="182.58333333333334" cy="61.61290322580645" fill="#27b0b0" r="3.3125"><title>2024-12-06: 5 km</title></circle><circle cx="182.58333333333334" cy="70.45161290322581" fill="#555555" r="3.3125"><title>2024-12-07</title></circle><circle cx="182.58333333333334" cy="79.29032258064517" fill="#ff69b4" r="3.3125"><title>2024-12-08: 21 km</title></circle><circle cx="182.58333333333334" cy="88.12903225806451" fill="#555555" r="3.3125"><title>2024-12-09</title></circle><circle cx="182.58333333333334" cy="96.96774193548387" fill="#ff69b4" r="3.3125"><title>2024-12-10: 10 km</title></circle><circle cx="182.58333333333334" cy="105.80645161290322" fill="#0fdfdf" r="3.3125"><title>2024-12-11: 8 km</title></circle><circle cx="182.58333333333334" cy="114.64516129032258" fill="#ff69b4" r="3.3125"><title>2024-12-12: 10 km</title></circle><circle cx="182.58333333333334" cy="123.48387096774194" fill="#555555" r="3.3125"><title>2024-12-13</title></circle><circle cx="182.58333333333334" cy="132.32258064516128" fill="#ff69b4" r="3.3125"><title>2024-12-14: 14 km</title></circle><circle cx="182.58333333333334" cy="141.16129032258064" fill="#07efef" r="3.3125"><title>2024-12-15: 9 km</title></circle><circle cx="182.58333333333334" cy="149.99999999999997" fill="#555555" r="3.3125"><title>2024-12-16</title></circle><circle cx="182.58333333333334" cy="158.83870967741933" fill="#09ebeb" r="3.3125"><title>2024-12-17: 8 km</title></circle><circle cx="182.58333333333334" cy="167.6774193548387" fill="#13d8d8" r="3.3125"><title>2024-12-18: 7 km</title></circle><circle cx="182.58333333333334" cy="176.51612903225805" fill="#ff69b4" r="3.3125"><title>2024-12-19: 11 km</title></circle><circle cx="182.58333333333334" cy="185.35483870967738" fill="#0ce6e6" r="3.3125"><title>2024-12-20: 8 km</title></circle><circle cx="182.58333333333334" cy="194.19354838709674" fill="#ff69b4" r="3.3125"><title>2024-12-21: 10 km</title></circle><circle cx="182.58333333333334" cy="203.0322580645161" fill="#ff69b4" r="3.3125"><title>2024-12-22: 15 km</title></circle><circle cx="182.58333333333334" cy="211.87096774193546" fill="#555555" r="3.3125"><title>2024-12-23</title></circle><circle cx="182.58333333333334" cy="220.70967741935482" fill="#06f2f2" r="3.3125"><title>2024-12-24: 9 km</title></circle><circle cx="182.58333333333334" cy="229.54838709677418" fill="#09ecec" r="3.3125"><title>2024-12-25: 8 km</title></circle><circle cx="182.58333333333334" cy="238.3870967741935" fill="#ff69b4" r="3.3125"><title>2024-12-26: 11 km</title></circle><circle cx="182.58333333333334" cy="247.22580645161287" fill="#ff69b4" r="3.3125"><title>2024-12-27: 11 km</title></circle><circle cx="182.58333333333334" cy="256.06451612903226" fill="#ff69b4" r="3.3125"><title>2024-12-28: 13 km</title></circle><circle cx="182.58333333333334" cy="264.90322580645164" fill="#ff69b4" r="3.3125"><title>2024-12-29: 19 km</title></circle><circle cx="182.58333333333334" cy="273.741935483871" fill="#555555" r="3.3125"><title>2024-12-30</title></circle><circle cx="182.58333333333334" cy="282.5806451612903" fill="#ff69b4" r="3.3125"><title>2024-12-31: 10 km</title></circle></svg>