<?xml version="1.0" encoding="utf-8" ?>
<svg baseProfile="full" height="200mm" version="1.1" viewBox="0,0,200,200" width="200mm" xmlns="http://www.w3.org/2000/svg" xmlns:ev="http://www.w3.org/2001/xml-events" xmlns:xlink="http://www.w3.org/1999/xlink"><defs /><rect fill="#1a1a1a" height="200" width="200" x="0" y="0" /><rect fill="#1a1a1a" height="200" width="180" x="10" y="0" /><text alignment-baseline="middle" fill="#e1ed5e" style="dominant-baseline: central; font-size:9.0px; font-family:Arial;" text-anchor="middle" x="100.0" y="100.0">2026</text><line stroke="#e1ed5e" stroke-width="0.3" x1="100.0" x2="100.0" y1="15.0" y2="10.0" /><path d="M 100.0 14.0 a86.0,86.0 0 0,1 42.46469731375804,11.215312516191453" fill="none" id="id25" stroke="none" /><text fill="#e1ed5e" style="font-size:6.75px; font-family:Arial;" text-anchor="middle"><textPath startOffset="22.20632615414155" xlink:href="#id25">January</textPath></text><path d="M 100.0 79.0 l 0.0 -11.033752263381828 a32.03375226338183,32.03375226338183 0 0,0 0.5514083867173668,0.00474614607031695 l -0.18992790744483848 11.03211749392007" fill="#ff5808" stroke="none" /><path d="M 100.36148047927253 79.00311137660856 l 0.16699017493380236 -9.699760582762316 a30.701197919918652,30.701197919918652 0 0,0 0.5283140569461585,0.013644793412626503 l -0.33393086707482866 9.69544899720733" fill="#ff4406" stroke="none" /><path d="M 100.72285384407766 79.0124445844662 l 2.1685615322329816 -62.9626662466014 a84.0,84.0 0 0,0 1.4446366704426739,0.062209093903220936 l -3.2520390350649873 62.916009426173986" fill="#4dd2ff" stroke="none" /><path d="M 101.08401301168833 79.027996857942 l 0.4793458719880199 -9.273729212722435 a30.28610930238781,30.28610930238781 0 0,0 0.520398934728247,0.031391884890654385 l -0.6389068555558789 9.264104058451476" fill="#ff3e05" stroke="none" /><path d="M 101.80526077348638 79.07773832637324 l 0.6849495368143177 -7.938295482254744 a28.967790850139593,28.967790850139593 0 0,0 0.49641809765097017,0.047140879947701116 l -0.821492761555532 7.925329057791865" fill="#ff2a04" stroke="none" /><path d="M 102.16513564639614 79.11191278185805 l 0.8224583829693076 -7.934644864099069 a28.97715656804417,28.97715656804417 0 0,0 0.4956933084215868,0.05569691885724856 l -0.9589183949006197 7.919311991771219" fill="#ff2a04" stroke="none" /><path d="M 102.52436894288641 79.15227682838746 l 1.3114960286045991 -10.831105422234737 a31.91021844422046,31.91021844422046 0 0,0 0.5447306343976338,0.07072167021870063 l -1.497741391510079 10.8069254288519" fill="#ff5608" stroke="none" /><path d="M 102.88285421437855 79.19881850522331 l 7.451344101332074 -53.7650361432702 a75.2789244587953,75.2789244587953 0 0,0 1.2820037384015792,0.1889340259718218 l -8.375716820162308 53.628807633137406" fill="#41ffd2" stroke="none" /><path d="M 103.2404852339499 79.25152402106235 l 0.8114725825345114 -5.195771056102301 a26.25875694624078,26.25875694624078 0 0,0 0.44598722313438216,0.07359171318315996 l -0.9007890118077687 5.181033079979517" fill="#ff0000" stroke="none" /><path d="M 103.59715602781102 79.31037775812273 l 1.666369029839764 -9.584389855874052 a30.72817118748383,30.72817118748383 0 0,0 0.5203375044692627,0.09508835302813057 l -1.8311016554119275 9.554286021495184" fill="#ff4506" stroke="none" /><path d="M 104.307194497241 79.44645832069477 l 1.8506440842745058 -8.831105803107032 a30.022932629269206,30.022932629269206 0 0,0 0.5048960523940415,0.11035072126460181 l -2.0023828608220753 8.79794158374656" fill="#ff3a05" stroke="none" /><path d="M 104.66035177308747 79.52364482259891 l 2.1640866044093263 -9.50842513701154 a30.751585482245275,30.751585482245275 0 0,0 0.5151275886190967,0.12191405712125887 l -2.3274378799909465 9.469765167749413" fill="#ff4506" stroke="none" /><path d="M 105.01212808612495 79.60689891045804 l 2.778149846704906 -11.303599926463699 a32.63999518334508,32.63999518334508 0 0,0 0.5444523898137799,0.13879303690168096 l -2.972311125203711 11.25410389339315" fill="#ff6109" stroke="none" /><path d="M 105.36241919743992 79.69619591428918 l 3.828659495134991 -14.496507907705071 a35.99357779343686,35.99357779343686 0 0,0 0.5976684071886668,0.16336535273954136 l -4.077625791547368 14.428456014139236" fill="#ff920d" stroke="none" /><path d="M 105.71112130821622 79.79150937346287 l 2.5511587187293667 -9.027135701019336 a30.380703053224035,30.380703053224035 0 0,0 0.5020191024718326,0.1465531422817258 l -2.7061680389246265 8.981884229818908" fill="#ff3f05" stroke="none" /><path d="M 106.0581310904928 79.89281104454417 l 3.139408898590725 -10.419828654990095 a31.88249591922291,31.88249591922291 0 0,0 0.5241097117050755,0.1628434386621161 l -3.3183039830065186 10.364245081445459" fill="#ff5607" stroke="none" /><path d="M 106.74666289553966 80.11325718540242 l 4.116805743271112 -12.134867015249354 a33.81417523704186,33.81417523704186 0 0,0 0.549589834579067,0.19174110180535303 l -4.325077581913452 12.062205060271793" fill="#ff720a" stroke="none" /><path d="M 107.08798089147638 80.2323363322302 l 4.722433415889861 -13.170390395804732 a34.99144597764715,34.99144597764715 0 0,0 0.5652246153520001,0.20817699596089329 l -4.948440357014437 13.087150132037515" fill="#ff830c" stroke="none" /><path d="M 107.4271985657038 80.35727306442388 l 4.326763346368164 -11.442999695742719 a33.2336880413162,33.2336880413162 0 0,0 0.5333482075748953,0.2069308184775036 l -4.523094718942726 11.366826173374669" fill="#ff6a09" stroke="none" /><path d="M 107.76421540070413 80.48803036053334 l 7.30869251001427 -18.36721149527392 a40.76793980965293,40.76793980965293 0 0,0 0.6497946218066933,0.2650675416062471 l -7.6237710014093505 18.238683067484093" fill="#ffd413" stroke="none" /><path d="M 108.09893153111575 80.62456947434976 l 4.0375099970034976 -9.659112951258946 a31.46899947373585,31.46899947373585 0 0,0 0.49798379291478306,0.2132106714124678 l -4.203177547708596 9.588182751883688" fill="#ff5007" stroke="none" /><path d="M 108.43124777332544 80.76684994638697 l 4.445298322710345 -10.140502565261562 a32.07205804961154,32.07205804961154 0 0,0 0.5037113448730156,0.22600059761124472 l -4.619191786050141 10.062481637133786" fill="#ff5908" stroke="none" /><path d="M 109.08828744355905 81.06846463323043 l 3.9552464312930034 -8.239053635058593 a30.13925484564405,30.13925484564405 0 0,0 0.46576448515745555,0.22854861007381314 l -4.096482183460891 8.169749864849948" fill="#ff3c05" stroke="none" /><path d="M 109.41281617654863 81.2277094730956 l 5.76018743046073 -11.487732247808566 a33.850982508406844,33.850982508406844 0 0,0 0.5186285050903039,0.2656616639476785 l -5.95707642313979 11.386878058548387" fill="#ff730a" stroke="none" /><path d="M 109.73455568895987 81.39251694778311 l 5.688946552141333 -10.8743511194858 a33.27255577062019,33.27255577062019 0 0,0 0.5051961534345367,0.26985828911397336 l -5.875287752104181 10.774814103870073" fill="#ff6a09" stroke="none" /><line stroke="#e1ed5e" stroke-width="0.3" x1="143.23703022742887" x2="145.7803849466894" y1="26.81831364943548" y2="22.513508569990506" /><path d="M 143.74570117128098 25.957352633546492 a86.0,86.0 0 0,1 28.547481713284135,27.462654790039103" fill="none" id="id26" stroke="none" /><text fill="#e1ed5e" style="font-size:6.75px; font-family:Arial;" text-anchor="middle"><textPath startOffset="19.985693538727396" xlink:href="#id26">February</textPath></text><line stroke="#e1ed5e" stroke-width="0.3" x1="172.23445277983987" x2="176.4835382374775" y1="55.19839476539836" y2="52.563006222186495" /><path d="M 173.08426987136738 54.67131705675599 a86.0,86.0 0 0,1 12.851231095245387,41.99856678651699" fill="none" id="id27" stroke="none" /><text fill="#e1ed5e" style="font-size:6.75px; font-family:Arial;" text-anchor="middle"><textPath startOffset="22.20632615414155" xlink:href="#id27">March</textPath></text><line stroke="#e1ed5e" stroke-width="0.3" x1="184.98032266829074" x2="189.97916517819016" y1="98.17113171792111" y2="98.06355123074" /><path d="M 185.9800911702706 98.14961562048488 a86.0,86.0 0 0,1 -9.607161424134198,41.387399972396054" fill="none" id="id28" stroke="none" /><text fill="#e1ed5e" style="font-size:6.75px; font-family:Arial;" text-anchor="middle"><textPath startOffset="21.466115282336823" xlink:href="#id28">April</textPath></text><line stroke="#e1ed5e" stroke-width="0.3" x1="174.80103733775053" x2="179.2010983576182" y1="140.37084112569926" y2="142.7455964860345" /><path d="M 175.68104954172406 140.8457921977663 a86.0,86.0 0 0,1 -30.038265399797805,32.042727171017184" fill="none" id="id29" stroke="none" /><text fill="#e1ed5e" style="font-size:6.75px; font-family:Arial;" text-anchor="middle"><textPath startOffset="22.206326154141568" xlink:href="#id29">May</textPath></text><line stroke="#e1ed5e" stroke-width="0.3" x1="143.8653032363475" x2="146.44561519142675" y1="172.8068346515853" y2="177.08958963109032" /><path d="M 144.38136562736335 173.6633856474863 a86.0,86.0 0 0,1 -40.68145358897372,12.25698825130547" fill="none" id="id30" stroke="none" /><text fill="#e1ed5e" style="font-size:6.75px; font-family:Arial;" text-anchor="middle"><textPath startOffset="21.466115282336833" xlink:href="#id30">June</textPath></text><line stroke="#e1ed5e" stroke-width="0.3" x1="102.19456741930631" x2="102.32365962044197" y1="184.97166512339345" y2="189.96999836594603" /><path d="M 102.22038585953345 185.97133177190398 a86.0,86.0 0 0,1 -42.740103519485714,-10.115201625700543" fill="none" id="id31" stroke="none" /><text fill="#e1ed5e" style="font-size:6.75px; font-family:Arial;" text-anchor="middle"><textPath startOffset="22.20632615414155" xlink:href="#id31">July</textPath></text><line stroke="#e1ed5e" stroke-width="0.3" x1="58.666819895761336" x2="56.23545636021788" y1="174.27360380694188" y2="178.64263932499728" /><path d="M 58.180547188652646 175.14741091055294 a86.0,86.0 0 0,1 -31.652253787137756,-30.449443065178592" fill="none" id="id32" stroke="none" /><text fill="#e1ed5e" style="font-size:6.75px; font-family:Arial;" text-anchor="middle"><textPath startOffset="22.20632615414155" xlink:href="#id32">August</textPath></text><line stroke="#e1ed5e" stroke-width="0.3" x1="26.63291911575756" x2="22.317208475507996" y1="142.92168965132927" y2="145.44649492493687" /><path d="M 25.769776987707644 143.4266507060508 a86.0,86.0 0 0,1 -11.730757126820373,-40.83630448921669" fill="none" id="id33" stroke="none" /><text fill="#e1ed5e" style="font-size:6.75px; font-family:Arial;" text-anchor="middle"><textPath startOffset="21.46611528233685" xlink:href="#id33">September</textPath></text><line stroke="#e1ed5e" stroke-width="0.3" x1="15.007084014347285" x2="10.007500721073583" y1="101.09737516637583" y2="101.16192664675087" /><path d="M 14.007167355692545 101.11028546245083 a86.0,86.0 0 0,1 10.666146001902534,-42.60595125391555" fill="none" id="id34" stroke="none" /><text fill="#e1ed5e" style="font-size:6.75px; font-family:Arial;" text-anchor="middle"><textPath startOffset="22.20632615414155" xlink:href="#id34">October</textPath></text><line stroke="#e1ed5e" stroke-width="0.3" x1="26.266209847984243" x2="21.928928074336255" y1="57.711370442889674" y2="55.22380399835377" /><path d="M 25.398753493254645 57.213857153982495 a86.0,86.0 0 0,1 29.58750427330803,-30.492523968695096" fill="none" id="id35" stroke="none" /><text fill="#e1ed5e" style="font-size:6.75px; font-family:Arial;" text-anchor="middle"><textPath startOffset="21.46611528233685" xlink:href="#id35">November</textPath></text><line stroke="#e1ed5e" stroke-width="0.3" x1="56.762969772571076" x2="54.21961505331055" y1="26.818313649435495" y2="22.513508569990535" /><path d="M 56.25429882871897 25.957352633546506 a86.0,86.0 0 0,1 42.265352541879196,-11.944610805530505" fill="none" id="id36" stroke="none" /><text fill="#e1ed5e" style="font-size:6.75px; font-family:Arial;" text-anchor="middle"><textPath startOffset="22.20632615414155" xlink:href="#id36">December</textPath></text></svg>